<?xml version="1.0" standalone="no"?>
<!DOCTYPE svg PUBLIC "-//W3C//DTD SVG 20010904//EN"
 "http://www.w3.org/TR/2001/REC-SVG-20010904/DTD/svg10.dtd">
<svg version="1.0" xmlns="http://www.w3.org/2000/svg"
 width="400.000000pt" height="400.000000pt" viewBox="0 0 400.000000 400.000000"
 preserveAspectRatio="xMidYMid meet">

<g transform="translate(0.000000,400.000000) scale(0.100000,-0.100000)"
fill="#000000" stroke="none">
<path d="M1812 3760 c-22 -14 -50 -20 -87 -20 -46 0 -57 -4 -70 -24 -19 -29
-83 -40 -138 -24 -32 10 -44 9 -70 -4 -18 -9 -52 -21 -77 -28 -45 -12 -100
-53 -100 -75 0 -7 -38 -21 -84 -33 -113 -27 -157 -49 -170 -84 -8 -22 -22 -32
-61 -44 -53 -17 -83 -37 -101 -69 -6 -11 -23 -21 -38 -23 -41 -5 -52 -45 -26
-89 25 -43 25 -53 1 -53 -40 0 -83 -91 -49 -102 8 -3 1 -22 -22 -57 -26 -41
-31 -57 -23 -70 7 -11 7 -23 0 -39 -9 -20 -5 -28 31 -65 32 -32 42 -51 42 -74
0 -35 7 -44 58 -74 29 -17 33 -24 30 -58 -2 -49 11 -66 65 -79 48 -12 81 -44
122 -115 74 -130 200 -227 292 -227 21 0 24 -3 15 -12 -7 -7 -12 -22 -12 -34
0 -18 -6 -23 -32 -26 l-33 -3 0 -64 c0 -42 5 -66 13 -69 33 -11 62 -161 37
-195 -7 -9 -24 -17 -38 -17 -36 0 -51 -31 -42 -86 4 -31 13 -49 29 -60 19 -12
24 -26 28 -75 3 -35 10 -64 18 -69 10 -6 8 -11 -9 -19 -11 -7 -21 -18 -21 -25
0 -7 -10 -12 -22 -12 -51 2 -48 -100 4 -156 28 -29 32 -40 33 -100 l2 -66 -32
-6 c-19 -4 -71 2 -124 14 -168 37 -362 23 -484 -35 -68 -32 -56 -84 44 -180
65 -63 108 -129 247 -376 11 -19 23 -49 26 -66 l7 -30 -107 -6 c-59 -4 -208
-7 -331 -7 -175 0 -224 -3 -220 -12 5 -17 546 -17 624 -1 48 9 54 9 67 -11 7
-12 17 -18 20 -15 8 7 -64 161 -125 269 -75 132 -127 205 -199 281 -69 73 -84
105 -57 127 7 6 48 21 91 32 70 19 97 22 230 17 174 -5 234 -18 351 -78 153
-78 221 -134 251 -206 14 -32 14 -36 -3 -48 -15 -11 -15 -15 -4 -29 8 -9 16
-14 19 -11 3 2 -1 11 -8 20 -9 11 -9 15 -1 15 34 0 16 -75 -21 -89 -13 -5 -36
-23 -52 -40 l-30 -31 -13 27 -13 28 5 -30 c4 -18 2 -25 -3 -17 -11 17 -42 5
-35 -14 3 -9 -2 -14 -17 -14 -18 0 -20 -3 -11 -14 9 -11 7 -15 -11 -20 -19 -5
-20 -8 -8 -16 20 -13 33 -13 24 2 -4 7 -3 8 5 4 9 -6 8 -14 -3 -32 -22 -32
-22 -134 -1 -134 12 0 15 13 15 58 0 72 28 119 108 182 l52 42 0 -66 c0 -91
20 -216 34 -216 9 0 9 17 0 73 -18 101 -18 218 1 243 20 26 19 64 -5 126 -25
65 -26 108 -4 108 9 0 18 8 21 19 2 10 16 24 30 32 13 7 27 25 30 41 5 25 10
28 46 28 52 0 190 -42 242 -74 22 -14 56 -34 75 -45 19 -10 53 -35 75 -54 l40
-35 -90 19 c-123 26 -189 25 -214 -2 -35 -38 -45 -104 -46 -294 0 -110 4 -182
10 -185 6 -3 12 64 15 187 3 105 8 195 13 199 4 4 7 2 7 -4 0 -22 89 -140 146
-193 32 -30 90 -87 129 -128 40 -41 74 -70 78 -65 3 6 -34 52 -84 102 l-89 93
24 45 c26 48 79 99 137 131 19 11 35 27 37 36 9 44 -187 196 -332 256 -68 28
-179 50 -268 53 -23 1 -28 5 -28 27 0 14 -6 38 -14 53 -19 37 -10 108 14 108
19 0 50 55 50 89 0 22 -43 57 -58 47 -12 -7 -23 72 -15 117 4 25 10 34 19 30
8 -3 22 1 31 8 11 10 14 10 9 2 -4 -8 3 -23 18 -38 13 -13 26 -35 28 -47 2
-18 10 -24 36 -26 24 -3 32 -8 32 -23 0 -11 7 -22 15 -25 9 -4 15 -19 15 -35
0 -29 22 -41 35 -19 10 16 25 12 25 -6 0 -13 7 -15 35 -11 33 5 35 4 35 -22 0
-46 23 -57 64 -32 35 22 35 22 46 2 17 -33 48 -45 76 -30 19 10 27 10 36 1 18
-18 43 -15 63 8 23 25 53 26 79 1 19 -17 27 -18 76 -9 80 15 79 14 101 53 12
19 27 35 33 35 18 0 46 33 46 54 0 10 -10 31 -21 48 l-21 29 22 24 22 24 -33
48 c-19 26 -46 62 -60 79 -14 17 -40 65 -57 106 -56 133 -68 407 -22 470 11
15 23 41 26 58 5 22 12 30 29 30 12 0 32 11 44 24 29 31 20 68 -25 102 -31 24
-33 28 -19 47 20 28 19 80 -1 120 -11 20 -20 73 -25 145 -7 101 -11 118 -37
160 -17 27 -37 80 -46 123 -9 43 -32 114 -51 160 -19 46 -35 89 -35 96 0 7 14
34 30 60 35 54 37 86 11 129 -11 18 -17 41 -14 56 6 30 0 35 -67 52 -42 11
-53 11 -69 -1 -18 -12 -22 -11 -35 15 -21 41 -62 65 -98 58 -25 -5 -31 -1 -50
30 -19 33 -51 54 -81 54 -7 0 -27 -9 -45 -20z m294 -394 c50 -16 104 -49 104
-66 0 -18 -34 -20 -54 -2 -18 16 -30 18 -77 13 -66 -8 -84 -19 -87 -56 -1 -19
6 -30 29 -44 l31 -19 -51 -7 c-28 -4 -51 -11 -51 -16 0 -12 61 -2 105 16 l30
12 -37 16 c-32 13 -38 21 -38 46 0 29 1 30 66 37 57 6 68 4 76 -10 7 -12 20
-16 41 -14 30 3 32 1 62 -77 17 -44 37 -109 45 -145 7 -36 26 -87 43 -113 26
-42 31 -60 37 -155 4 -60 14 -124 24 -146 28 -68 14 -126 -28 -110 -9 3 -16 1
-16 -4 0 -6 8 -13 18 -17 25 -8 79 -60 86 -83 9 -29 -19 -53 -52 -46 -15 3
-46 26 -69 50 -39 41 -42 48 -45 112 -2 37 -3 68 -2 70 0 1 12 -7 27 -18 14
-11 28 -20 31 -20 11 0 5 144 -8 221 -8 42 -21 91 -30 110 l-17 34 20 -25 c11
-14 21 -20 21 -14 0 7 -8 22 -18 34 l-18 22 -30 -34 c-27 -31 -32 -45 -37
-114 -6 -71 -4 -84 18 -127 13 -26 19 -45 13 -41 -8 5 -9 1 -3 -12 4 -10 10
-49 14 -85 7 -68 34 -119 86 -161 16 -12 20 -25 17 -51 -4 -33 -6 -35 -38 -34
-23 1 -36 7 -40 19 -6 21 -53 25 -72 6 -9 -9 -15 -9 -24 0 -16 16 -60 15 -83
-2 -16 -11 -21 -11 -32 0 -18 17 -161 16 -189 -1 -15 -10 -24 -11 -32 -3 -6 6
-22 7 -39 3 -15 -5 -32 -7 -38 -6 -5 2 -27 -3 -48 -10 -35 -11 -40 -11 -49 4
-5 10 -21 17 -38 17 -26 0 -33 7 -55 50 -14 28 -23 56 -19 61 3 6 34 24 67 40
57 27 66 28 153 23 57 -3 100 -1 111 5 14 8 -5 11 -77 12 -52 1 -105 1 -117 0
-39 -3 -127 -49 -157 -80 l-28 -32 36 -74 c20 -40 40 -76 46 -80 5 -3 19 8 31
25 28 38 36 38 44 0 5 -22 1 -37 -14 -56 -26 -34 -28 -137 -5 -251 9 -43 17
-87 20 -99 2 -11 22 -32 46 -48 41 -27 42 -27 79 -11 21 10 42 14 47 11 6 -3
22 -1 37 6 19 9 28 9 37 0 20 -20 43 -14 73 18 21 22 32 27 41 19 7 -6 30 -10
51 -8 21 1 50 -1 65 -5 15 -5 35 -3 47 3 16 9 26 8 47 -5 21 -14 30 -15 45 -6
10 7 21 12 24 12 3 0 23 -37 45 -82 23 -45 50 -92 60 -103 23 -25 27 -43 5
-25 -18 15 -45 6 -45 -15 0 -22 -18 -19 -25 5 -10 30 -53 27 -65 -5 -10 -26
-34 -33 -46 -14 -4 7 -29 10 -66 7 -44 -3 -61 -1 -65 9 -7 18 -38 17 -53 -2
-20 -24 -59 -19 -70 10 -10 25 -43 34 -55 15 -3 -5 -15 -10 -26 -10 -16 0 -19
-5 -14 -20 4 -14 2 -20 -8 -20 -9 0 -17 5 -19 11 -3 8 -10 8 -26 -2 -23 -14
-33 -8 -45 26 -2 6 -11 4 -21 -5 -16 -13 -20 -12 -32 4 -7 11 -20 16 -29 13
-8 -4 -15 -1 -15 5 0 6 -3 8 -7 5 -13 -14 -34 49 -49 151 -8 58 -21 120 -28
137 -7 16 -16 47 -20 67 -8 45 -33 102 -62 143 -12 17 -29 53 -38 80 -12 37
-25 56 -49 70 -46 29 -87 45 -87 36 0 -4 18 -16 41 -26 l40 -19 -38 -23 c-42
-26 -31 -31 22 -9 32 14 45 12 45 -5 0 -4 -23 -12 -52 -18 -44 -10 -53 -9 -60
4 -6 9 -23 15 -49 15 -39 0 -71 14 -140 59 -46 31 -129 140 -129 170 0 8 30
43 66 78 l66 63 -16 49 c-9 27 -16 64 -16 81 0 46 46 136 88 171 40 34 123 69
161 69 16 0 21 4 17 15 -10 27 129 110 173 103 11 -2 30 9 45 26 24 25 26 33
20 75 -4 25 -11 56 -15 69 -5 13 -9 27 -9 32 0 12 69 43 130 57 71 16 267 10
336 -11z m-509 -1016 c13 -22 29 -37 46 -40 l26 -5 -24 -21 -23 -21 -10 21
c-5 12 -18 39 -28 61 -27 58 -28 61 -16 50 6 -5 19 -26 29 -45z m380 -38 c6
-4 14 -48 18 -98 l7 -91 -37 -7 c-20 -4 -39 -5 -42 -2 -3 3 -11 44 -16 92 -10
80 -10 87 8 100 21 15 44 18 62 6z m227 -1 c3 -4 8 -52 12 -105 l7 -96 -34 0
c-56 0 -63 11 -70 97 -5 69 -4 80 14 96 20 18 62 23 71 8z m96 -11 c8 -14 8
-31 0 -58 -5 -20 -10 -63 -10 -94 0 -58 -8 -69 -38 -49 -20 12 -30 200 -11
212 23 15 48 10 59 -11z m-415 -68 c4 -31 10 -73 15 -94 7 -36 7 -36 -27 -43
-19 -3 -37 -5 -39 -2 -2 2 -7 49 -10 104 -6 94 -6 101 12 105 31 7 42 -10 49
-70z m209 66 c3 -7 7 -50 10 -95 l5 -83 -43 0 c-52 0 -56 8 -56 118 l0 72 40
0 c24 0 42 -5 44 -12z m-282 -120 c3 -54 2 -98 -3 -98 -4 0 -14 -3 -23 -6 -12
-5 -16 1 -16 23 0 41 -19 95 -39 113 -24 22 -12 59 24 75 44 19 52 4 57 -107z
m533 85 c-4 -10 -12 -56 -19 -103 -14 -100 -32 -93 -21 8 9 92 15 112 32 112
10 0 13 -5 8 -17z m-776 -167 c34 -64 37 -84 19 -149 l-11 -44 -66 1 c-36 1
-77 -2 -92 -6 -23 -7 -26 -4 -39 40 -8 26 -16 52 -18 59 -2 6 7 13 20 16 15 3
10 5 -14 6 -51 1 -78 30 -78 81 0 50 17 52 62 10 36 -34 53 -32 20 3 -17 18
-20 30 -15 60 6 40 7 40 93 55 l45 8 21 -40 c12 -23 35 -67 53 -100z m168 72
c12 -37 21 -323 11 -334 -9 -8 -38 25 -42 49 -39 205 -43 260 -24 302 16 35
40 28 55 -17z m341 -64 c38 -8 47 -33 57 -148 7 -84 2 -96 -41 -96 -40 0 -52
28 -59 143 -5 69 -4 107 3 107 5 0 23 -3 40 -6z m-56 -119 c6 -103 5 -111 -14
-132 -23 -25 -66 -31 -73 -10 -2 6 -5 65 -7 129 -5 128 -5 128 57 125 l30 -2
7 -110z m205 101 c1 -1 5 -194 4 -212 -1 -17 -50 -23 -65 -9 -7 8 -16 51 -19
102 -4 48 -9 98 -13 111 -7 23 -6 23 42 17 27 -4 50 -8 51 -9z m-313 -93 c8
-126 2 -163 -31 -163 -30 0 -30 1 -38 137 l-6 112 28 4 c15 2 31 5 34 6 3 0 9
-43 13 -96z m372 83 c1 0 8 -50 17 -111 16 -114 13 -127 -23 -118 -26 7 -28
18 -36 139 l-7 106 24 -7 c13 -4 25 -8 25 -9z m39 -18 c6 -22 16 -203 10 -197
-10 10 -32 209 -23 209 5 0 10 -6 13 -12z m-501 -25 c3 -16 8 -65 12 -111 7
-91 -1 -112 -42 -112 -24 0 -24 0 -24 119 0 119 2 128 37 130 6 1 14 -11 17
-26z m-454 -135 c0 -35 14 -52 22 -27 5 14 159 23 177 11 31 -22 -2 -32 -99
-32 -54 0 -101 -4 -105 -10 -3 -5 26 -7 78 -3 47 3 96 3 111 -1 26 -6 26 -8
28 -104 1 -75 2 -86 7 -47 5 42 10 51 29 53 18 3 22 -2 23 -25 1 -15 0 -32 -1
-38 -2 -5 -2 -20 -2 -32 2 -23 -5 -27 -45 -23 -19 1 -23 -4 -23 -28 l0 -29
-57 13 c-69 16 -132 18 -167 4 -25 -9 -26 -8 -26 30 0 22 5 40 10 40 6 0 10 5
10 10 0 6 -11 10 -24 10 -29 0 -41 15 -50 59 -11 62 41 85 72 31 9 -16 20 -30
25 -30 11 0 9 9 -10 41 -17 28 -17 32 -1 58 9 16 12 33 8 38 -4 4 -10 35 -12
68 -4 56 -4 58 8 30 7 -16 13 -47 14 -67z m280 -114 c0 -28 -3 -31 -25 -26
-21 4 -25 10 -26 41 -2 61 3 145 9 156 7 12 41 -127 42 -171z m-131 -225 c44
-16 39 -29 -13 -29 -23 0 -70 -3 -103 -6 -52 -6 -61 -4 -67 11 -4 11 -1 22 6
27 19 11 140 10 177 -3z m51 -133 c0 -46 3 -98 6 -115 l7 -31 -92 0 c-56 0
-105 -5 -126 -14 -35 -15 -45 -12 -45 12 0 8 -13 27 -30 42 -26 24 -30 35 -30
79 0 39 4 51 15 51 15 0 40 -22 63 -56 11 -17 12 -17 6 6 -3 14 -13 33 -21 42
-38 43 15 66 155 67 l92 1 0 -84z m58 -25 c6 -39 -7 -71 -28 -71 -17 0 -20 7
-20 43 0 24 3 47 7 51 14 13 38 0 41 -23z m-69 -140 c24 -15 -8 -24 -93 -25
-45 -1 -89 -6 -98 -12 -13 -7 15 -10 95 -9 l112 0 7 -35 c31 -157 37 -194 34
-198 -3 -2 -22 -6 -45 -9 -34 -5 -49 0 -103 34 -35 22 -71 42 -81 46 -9 4 -20
15 -23 24 -4 10 -15 38 -26 61 -15 34 -16 47 -7 58 6 7 9 20 6 29 -4 8 -1 18
6 22 32 20 190 30 216 14z m-224 -152 c4 -6 5 -12 2 -15 -7 -7 -37 7 -37 17 0
13 27 11 35 -2z m329 -15 c11 -29 6 -53 -13 -64 -23 -12 -26 -8 -35 43 -6 34
-5 37 17 37 14 0 28 -7 31 -16z m-91 -150 c-3 -9 -9 -12 -12 -7 -3 4 -10 11
-15 16 -5 4 0 7 12 7 15 0 20 -4 15 -16z m452 -69 c60 -9 195 -46 195 -54 0
-3 -14 -12 -30 -19 -45 -20 -135 -106 -155 -148 l-17 -36 -35 33 c-19 19 -55
67 -80 107 -40 63 -44 76 -35 97 15 33 44 37 157 20z m-571 -244 c3 -5 -2 -15
-12 -22 -15 -12 -16 -12 -5 2 7 9 10 19 6 22 -3 4 -4 7 0 7 3 0 8 -4 11 -9z"/>
<path d="M1686 3085 c-9 -9 -21 -26 -27 -38 -8 -16 -3 -14 22 10 18 18 30 35
27 38 -3 3 -13 -1 -22 -10z"/>
<path d="M1885 3070 c-93 -16 -148 -79 -175 -202 -11 -46 -10 -63 0 -88 38
-93 126 -136 244 -119 10 1 25 17 32 35 11 27 11 55 0 176 -8 78 -17 151 -21
161 -4 9 -4 17 1 17 4 0 16 -8 27 -17 20 -18 20 -18 3 8 -14 23 -48 42 -66 38
-3 -1 -23 -5 -45 -9z"/>
<path d="M1622 2813 l-2 -92 37 -30 c21 -17 44 -31 53 -30 12 0 11 3 -4 12
-66 42 -71 51 -77 144 l-6 88 -1 -92z"/>
<path d="M2235 2673 c8 -18 18 -33 20 -33 10 0 4 16 -16 40 l-20 25 16 -32z"/>
<path d="M1639 2643 c-15 -29 -112 -105 -144 -113 -11 -3 -24 -19 -29 -37 -6
-17 -19 -37 -30 -43 -20 -10 -20 -10 2 -6 16 3 22 -1 22 -15 0 -10 5 -19 11
-19 7 0 8 14 4 39 -6 38 -5 41 32 64 69 44 141 106 148 127 10 32 0 34 -16 3z"/>
<path d="M2210 2595 c-15 -16 -26 -43 -30 -75 -8 -59 -4 -66 22 -43 16 14 23
15 39 5 18 -12 19 -9 19 52 0 79 -16 98 -50 61z"/>
<path d="M1409 2396 l22 -23 -28 3 -28 4 30 -15 c59 -28 72 -15 27 28 -35 33
-54 36 -23 3z"/>
<path d="M1901 2379 c-7 -12 -10 -23 -8 -26 3 -3 11 5 17 17 6 12 10 23 8 25
-2 2 -10 -5 -17 -16z"/>
<path d="M1949 2383 c-13 -16 -12 -17 4 -4 9 7 17 15 17 17 0 8 -8 3 -21 -13z"/>
<path d="M2022 2384 c-7 -8 -8 -14 -3 -14 10 0 25 19 20 25 -2 1 -10 -3 -17
-11z"/>
<path d="M2109 2383 c-13 -15 -12 -15 9 -4 23 12 28 21 13 21 -5 0 -15 -7 -22
-17z"/>
<path d="M2151 2379 c-7 -12 -10 -23 -8 -26 3 -3 11 5 17 17 6 12 10 23 8 25
-2 2 -10 -5 -17 -16z"/>
<path d="M2187 2379 c-4 -16 -3 -18 9 -8 16 13 19 29 5 29 -5 0 -11 -9 -14
-21z"/>
<path d="M2260 2394 c0 -15 27 -50 34 -43 4 3 -2 17 -13 30 -11 13 -20 19 -21
13z"/>
<path d="M2070 2375 c-7 -9 -10 -18 -7 -21 3 -3 10 4 17 15 13 25 8 27 -10 6z"/>
<path d="M2324 2355 c33 -28 48 -32 40 -11 -3 8 -20 20 -37 26 l-32 10 29 -25z"/>
<path d="M2331 1723 c-1 -7 14 -20 32 -29 29 -16 31 -16 18 -1 -7 10 -19 17
-26 17 -8 0 -16 6 -18 13 -4 9 -6 9 -6 0z"/>
<path d="M3070 2580 c0 -5 3 -10 8 -11 4 0 15 -2 25 -4 15 -3 16 -1 6 11 -13
16 -39 19 -39 4z"/>
<path d="M3172 2514 c-25 -17 -31 -47 -7 -38 31 12 13 -17 -43 -73 -32 -32
-45 -47 -30 -33 25 21 30 22 39 10 9 -12 10 -12 5 3 -3 9 -1 17 5 17 6 0 7 6
4 13 -4 6 -1 5 7 -4 12 -14 15 -14 32 3 11 10 20 26 21 36 0 9 4 23 8 29 6 10
-7 53 -16 53 -1 0 -13 -7 -25 -16z"/>
<path d="M2804 2504 c-6 -2 -40 -11 -75 -18 -36 -8 -63 -18 -61 -25 1 -6 -2
-11 -8 -11 -5 0 -10 -4 -10 -10 0 -10 21 -10 30 1 3 4 28 9 57 12 29 3 57 9
64 12 8 6 9 -2 4 -26 l-7 -34 21 19 c11 11 21 25 21 33 0 8 4 12 9 9 4 -3 8 5
7 17 -1 21 -27 32 -52 21z"/>
<path d="M3053 2493 c-35 -5 -45 -29 -17 -40 19 -7 95 17 89 28 -3 4 1 10 7
12 15 6 -31 6 -79 0z"/>
<path d="M3441 2434 c0 -11 3 -14 6 -6 3 7 2 16 -1 19 -3 4 -6 -2 -5 -13z"/>
<path d="M2698 2433 c6 -2 18 -2 25 0 6 3 1 5 -13 5 -14 0 -19 -2 -12 -5z"/>
<path d="M3402 2418 c-17 -22 -64 -129 -59 -134 8 -9 77 88 77 108 0 13 4 17
13 12 8 -5 8 -2 -2 9 -16 20 -16 20 -29 5z"/>
<path d="M3524 2372 c1 -34 5 -65 8 -67 8 -8 39 6 33 15 -3 4 6 11 20 14 14 4
25 11 25 16 0 5 18 19 40 31 40 22 58 50 20 29 -11 -6 -20 -8 -20 -5 0 3 -10
0 -22 -7 -13 -6 -29 -13 -36 -14 -8 -1 -22 -10 -33 -20 -18 -16 -19 -16 -20 7
0 13 -4 33 -9 44 -7 14 -8 0 -6 -43z"/>
<path d="M3200 2392 c0 -14 36 -43 43 -35 4 3 7 1 7 -5 0 -7 9 -12 20 -12 17
0 18 3 8 19 -6 11 -18 17 -26 13 -11 -4 -13 -1 -7 8 5 8 4 11 -3 6 -6 -3 -13
-2 -17 4 -7 12 -25 13 -25 2z"/>
<path d="M2790 2358 c-18 -18 -30 -27 -26 -20 16 27 -12 9 -69 -45 -57 -56
-58 -58 -33 -61 31 -4 71 15 63 28 -3 5 0 12 6 16 8 4 9 3 5 -4 -15 -24 6 -11
37 24 28 32 64 94 53 94 -2 0 -18 -15 -36 -32z"/>
<path d="M3128 2338 c4 -15 2 -19 -7 -14 -9 6 -11 -3 -9 -35 2 -32 8 -45 21
-47 14 -3 17 5 17 51 0 38 -4 57 -14 60 -10 4 -12 0 -8 -15z"/>
<path d="M3087 2335 c-8 -8 -17 -11 -21 -8 -3 4 -6 2 -6 -4 0 -6 -18 -18 -40
-27 -22 -9 -40 -21 -40 -28 0 -9 -3 -8 -10 2 -9 13 -11 13 -20 0 -21 -32 -12
-40 29 -25 53 18 83 39 109 75 24 32 23 40 -1 15z"/>
<path d="M2625 2250 c-3 -6 1 -7 9 -4 18 7 21 14 7 14 -6 0 -13 -4 -16 -10z"/>
<path d="M3433 2166 c2 -17 9 -32 15 -34 16 -5 15 0 -3 34 l-16 29 4 -29z"/>
<path d="M3380 2136 c0 -21 25 -54 34 -45 2 2 2 16 -1 31 -7 35 -33 46 -33 14z"/>
<path d="M3230 2145 c0 -3 4 -13 9 -23 5 -9 13 -26 17 -37 7 -19 8 -19 11 2 5
24 -12 63 -27 63 -6 0 -10 -2 -10 -5z"/>
<path d="M2887 2100 c-3 -13 -11 -18 -20 -14 -10 3 -30 -16 -61 -60 -25 -35
-46 -67 -46 -70 0 -17 31 -2 53 24 14 17 32 30 39 30 10 0 9 3 -2 10 -12 7
-12 12 -2 22 6 6 12 8 12 2 0 -10 84 -7 110 3 8 4 44 7 80 7 54 1 65 4 68 19
3 17 -4 17 -112 11 -113 -6 -115 -6 -109 15 3 12 3 21 0 21 -2 0 -7 -9 -10
-20z"/>
<path d="M3563 2103 c-16 -6 25 -63 44 -63 11 0 11 6 -2 29 -17 34 -25 40 -42
34z"/>
<path d="M3731 2090 c-8 -4 -10 -13 -7 -19 4 -6 2 -11 -5 -11 -7 0 -10 -2 -7
-5 8 -9 36 5 42 20 7 18 -6 26 -23 15z"/>
<path d="M3338 2073 c-7 -10 -20 -19 -28 -21 -8 -2 -18 -9 -22 -15 -4 -7 -8
-7 -8 -2 0 6 -5 3 -10 -5 -8 -12 -10 -11 -10 6 0 12 -7 24 -15 28 -25 9 -21
-137 6 -180 21 -34 71 -53 105 -40 15 6 15 8 -2 21 -10 8 -26 15 -35 15 -25 0
-47 32 -50 71 -3 37 12 61 41 67 21 5 60 43 60 59 0 18 -16 16 -32 -4z m-18
-37 c0 -3 -4 -8 -10 -11 -5 -3 -10 -1 -10 4 0 6 5 11 10 11 6 0 10 -2 10 -4z"/>
<path d="M2980 2017 c0 -25 -46 -103 -73 -126 -15 -12 -24 -41 -13 -41 25 0
59 27 80 63 30 51 42 127 20 127 -8 0 -14 -10 -14 -23z"/>
<path d="M3660 1969 c-94 -73 -130 -106 -130 -120 0 -22 69 15 70 38 1 4 12
22 26 38 18 20 22 23 15 8 -6 -12 -16 -25 -21 -28 -6 -3 -10 -11 -10 -16 0 -5
10 -1 22 11 12 11 25 20 29 20 7 0 32 61 27 66 -2 1 -14 -6 -28 -17z"/>
<path d="M1550 776 c0 -8 5 -18 10 -21 6 -4 8 -10 5 -15 -3 -5 -1 -11 4 -14
17 -11 17 29 -1 47 -14 13 -18 14 -18 3z"/>
<path d="M1529 733 c-1 -5 -1 -11 0 -15 0 -4 -6 -5 -14 -2 -11 5 -13 2 -9 -10
3 -9 9 -16 13 -16 12 0 31 23 31 37 0 14 -19 19 -21 6z"/>
</g>
</svg>
